# xmcd
# 
# Track frame offsets:
#     150
#     12508
#     24129
#     34820
#     46726
#     60909
#     72772
#     84922
#     97149
#     106200
#     120097
# 
# Disc length: 1759
# 
# Revision: 1
# Processed by: cddbd v1.5.2PL0 Copyright (c) Steve Scherf et al.
# Submitted via: fre:ac v1.1beta1pre5
# 
DISCID=7506dd0b
DTITLE=Hank Williams Jr. - Icon
DYEAR=2012
DGENRE=Country
TTITLE0=Stoned at the Jukebox
TTITLE1=I've Got a Right to Cry
TTITLE2=I'll Think of Something
TTITLE3=Long Gone Lonesome Blues
TTITLE4=Standing in the Shadows
TTITLE5=It's All Over But the Crying
TTITLE6=I'd Rather Be Gone
TTITLE7=Eleven Roses
TTITLE8=Jambalaya (On the Byou) (Live)
TTITLE9=Rainy Night in Georgia
TTITLE10=Cajun Baby
EXTD=(c)2012 Mercury Records\nupc 602537009015
EXTT0=(c)2012 Mercury Records\nupc 602537009015
EXTT1=(c)2012 Mercury Records\nupc 602537009015
EXTT2=(c)2012 Mercury Records\nupc 602537009015
EXTT3=(c)2012 Mercury Records\nupc 602537009015
EXTT4=(c)2012 Mercury Records\nupc 602537009015
EXTT5=(c)2012 Mercury Records\nupc 602537009015
EXTT6=(c)2012 Mercury Records\nupc 602537009015
EXTT7=(c)2012 Mercury Records\nupc 602537009015
EXTT8=(c)2012 Mercury Records\nupc 602537009015
EXTT9=(c)2012 Mercury Records\nupc 602537009015
EXTT10=(c)2012 Mercury Records\nupc 602537009015
PLAYORDER=
